# xmcd CD database file
#
# Track frame offsets:
#	150
#	14286
#	30376
#	39641
#	49451
#	58374
#	71358
#	84351
#	103086
#	114679
#	125382
#	140960
#	158190
#	177626
#	193746
#	207521
#	223216
#	239572
#	258099
#	280450
#	299089
#	314242
#	333240
#
# Disc length: 4728 seconds
#
# Revision: 0
# Processed by: cddbd v1.5.1PL0 Copyright (c) Steve Scherf et al.
# Submitted via: CDex 1.51
#
DISCID=7f127617
DTITLE=Various Artist - Stepping Up
DYEAR=2004
DGENRE=Country
TTITLE0=Speed The Plough - The Morris Motors Band
TTITLE1=Jenny Lind/The Girl I Left Behind Me - Walter and Daisy Bulwer and Billy Cooper
TTITLE2=New Rigged Ship/Rig-A-Jig-Jig - Oak
TTITLE3=When There Isn't A Girl About/Peggy Wood/Looking For A Partner - The Leeds Band
TTITLE4=Herbert Smith's Polka - Webb's Wonders
TTITLE5=Walter Bulwer's Polkas Nos 2 and 1 - The Old Swan Band
TTITLE6=Down The Road/See Me Dance The Polka - Flowers And Frolics
TTITLE7=High Level Hornpipe/Uncle George's - Ashley Hutchings
TTITLE8=Harper's Frolic/Bonny Kate - The New Victory Band
TTITLE9=Marmalade Polka - Umps And Dumps
TTITLE10=The Italian Job/Lodge Road - The English Country Blues Band
TTITLE11=Kentish Cricketers/Galopede - Oysterband
TTITLE12=One For Dan - The Cock And Bull Band
TTITLE13=Johnny O'Leary's/Mrs O'Dwyer's - Gas Mark 5
TTITLE14=Sloe Benga - Tiger Moth
TTITLE15=The Flying Pieman/Ripple Of The Teign/Gipping Jig - The Old Hat Dance Band
TTITLE16=The Old John Peel/Tom Cave's - The Geckoes
TTITLE17=Duke Of Cornwall's Reel - The Posh Band
TTITLE18=When It's Night Time In Italy/Climbing Up The Golden Stairs/The Thaxted Square -  Mark Bazeley and Jason Rice
TTITLE19=May Reel No 1/Bacca Pipes Jig - Dr Faustus
TTITLE20=Queen of the May/Watson's Hornpipe - Grand Union
TTITLE21=No Man's Jig/Hanoverian Dance/Three Jolly Sheepskins - Eliza Carthy Band
TTITLE22=The Final Last Banana/The Sleeve in the Cheese - Whapweasel
EXTD=YEAR: 2004
EXTT0=
EXTT1=
EXTT2=
EXTT3=
EXTT4=
EXTT5=
EXTT6=
EXTT7=
EXTT8=
EXTT9=
EXTT10=
EXTT11=
EXTT12=
EXTT13=
EXTT14=
EXTT15=
EXTT16=
EXTT17=
EXTT18=
EXTT19=
EXTT20=
EXTT21=
EXTT22=
PLAYORDER=
